{"title":"Natalia Lemos - Pussy Cartel","uid":11146330,"size":1076891134,"categoryP":"porn","categoryS":"movies","magnet":"?xt=urn:btih:831f49af186d834dd962cffa8d8aff561f76d0e9&amp;dn=Natalia+Lemos+-+Pussy+Cartel&amp;tr=udp%3A%2F%2Ftracker.openbittorrent.com%3A80&amp;tr=udp%3A%2F%2Fopen.demonii.com%3A1337&amp;tr=udp%3A%2F%2Ftracker.coppersurfer.tk%3A6969&amp;tr=udp%3A%2F%2Fexodus.desync.com%3A6969","seeders":0,"leechers":2,"uploader":"DavidL0ng","files":-1,"time":1412266516,"description":"screens;\n &lt;a href=&quot;\nhttp://bayimg.com/iAaCGAAgM&quot; rel=&quot;nofollow&quot; target=&quot;_NEW&quot;&gt;\nhttp://bayimg.com/iAaCGAAgM&lt;/a&gt;\n\nVideo\nID                                       : 0\nFormat                                   : MPEG-4 Visual\nFormat profile                           : Simple@L1\nFormat settings, BVOP                    : No\nFormat settings, QPel                    : No\nFormat settings, GMC                     : No warppoints\nFormat settings, Matrix                  : Default (H.263)\nCodec ID                                 : DX50\nCodec ID/Hint                            : DivX 5\nDuration                                 : 37mn 27s\nBit rate                                 : 3 565 Kbps\nWidth                                    : 640 pixels\nHeight                                   : 480 pixels\nDisplay aspect ratio                     : 4:3\nFrame rate                               : 29.970 fps\nColor space                              : YUV\nChroma subsampling                       : 4:2:0\nBit depth                                : 8 bits\nScan type                                : Interlaced\nScan order                               : Top Field First\nCompression mode                         : Lossy\nBits/(Pixel*Frame)                       : 0.387\nStream size                              : 955 MiB (93%)\nWriting library                          : Lavc52.72.2\n\nAudio\nID                                       : 1\nFormat                                   : MPEG Audio\nFormat version                           : Version 1\nFormat profile                           : Layer 3\nMode                                     : Joint stereo\nCodec ID                                 : 55\nCodec ID/Hint                            : MP3\nDuration                                 : 37mn 27s\nBit rate mode                            : Constant\nBit rate                                 : 256 Kbps\nChannel(s)                               : 2 channels\nSampling rate                            : 44.1 KHz\nCompression mode                         : Lossy\nStream size                              : 68.6 MiB (7%)\nAlignment                                : Aligned on interleaves\nInterleave, duration                     : 26 ms (0.78 video frame)\nInterleave, preload duration             : 809 ms","torrent":{"xt":"urn:btih:831f49af186d834dd962cffa8d8aff561f76d0e9","amp;dn":"Natalia+Lemos+-+Pussy+Cartel","amp;tr":["udp%3A%2F%2Ftracker.openbittorrent.com%3A80","udp%3A%2F%2Fopen.demonii.com%3A1337","udp%3A%2F%2Ftracker.coppersurfer.tk%3A6969","udp%3A%2F%2Fexodus.desync.com%3A6969"],"infoHash":"831f49af186d834dd962cffa8d8aff561f76d0e9","infoHashBuffer":{"type":"Buffer","data":[131,31,73,175,24,109,131,77,217,98,207,250,141,138,255,86,31,118,208,233]},"announce":[],"urlList":[]}}